<svg width="234" height="46" viewBox="0 0 234 46" fill="none" xmlns="http://www.w3.org/2000/svg">
<g id="Eramaa_logo_dark-green_without-safezone_RGB">
<path id="Vector" d="M46.6077 20.8888C46.6077 20.0879 46.6077 19.3562 46.6077 18.6246C46.6077 13.7316 46.6077 4.40072 46.6077 1.53254C46.6077 1.05894 46.2133 0.678467 45.7258 0.678467H33.2078C32.8162 8.29857 38.1838 17.3767 46.6077 20.8888Z" fill="white"/>
<path id="Vector_2" d="M10.4559 11.8718C12.5235 8.44224 13.5833 4.74659 13.6162 0.667816H1.45695C0.972227 0.667816 0.577872 1.04829 0.575134 1.51656C0.517624 7.91809 0.545009 14.2824 0.575134 20.793C4.85826 18.6645 8.1199 15.7484 10.4586 11.8718H10.4559Z" fill="white"/>
<path id="Vector_3" d="M46.6078 40.7718C46.6078 40.7718 46.0244 40.6627 45.6246 40.5643C44.8222 40.3674 44.0171 40.1732 43.2366 39.9151C41.1963 39.2473 39.1753 38.4837 37.2665 37.5099C36.6065 37.172 35.9575 36.8128 35.3221 36.4296C34.6868 36.0465 34.1253 35.5942 33.5146 35.1924V45.3295H45.7287C46.2161 45.3295 46.6105 44.9464 46.6105 44.4728V40.7665L46.6078 40.7718Z" fill="white"/>
<path id="Vector_4" d="M0.553223 40.7718C0.553223 40.7718 1.13654 40.6627 1.53637 40.5643C2.33877 40.3674 3.14391 40.1732 3.9244 39.9151C5.96464 39.2473 7.98571 38.4837 9.89449 37.5099C10.5545 37.172 11.2035 36.8128 11.8389 36.4296C12.4633 36.0518 13.0356 35.5942 13.6463 35.1924V45.3295H1.43504C0.947577 45.3295 0.553223 44.9464 0.553223 44.4728V40.7665V40.7718Z" fill="white"/>
<path id="Vector_5" d="M46.6078 32.8644V32.7579C46.6078 32.7579 45.9971 32.5797 45.3645 32.3721C42.5684 31.4515 39.975 30.241 37.6527 28.7723C33.5092 26.1542 30.0559 22.8364 27.3858 18.9119C25.4332 16.0411 23.9571 12.8882 22.9986 9.54375C22.1798 6.68355 21.769 4.01758 21.7389 1.39152V1.24784C21.7361 1.07224 21.7306 0.883331 21.7306 0.681122H17.6365C17.6666 8.6072 20.0738 15.8761 24.7841 22.259C30.1545 29.5359 37.4829 34.4687 46.5695 36.9218L46.6078 36.9325V32.867V32.8644Z" fill="white"/>
<path id="Vector_6" d="M31.2799 18.2867C35.1303 23.4111 40.3226 27.0775 46.6049 29.1448V24.8957C46.5721 24.8824 43.5049 23.4616 42.2396 22.7406C39.2683 21.0484 36.6885 18.723 34.3525 15.6313C33.0545 13.9126 32.0439 12.1113 31.3483 10.2701C30.9896 9.40275 30.7376 8.47684 30.4966 7.58286C30.4172 7.29551 30.3405 7.00816 30.2584 6.72081C29.7189 4.83441 29.4368 2.85755 29.393 0.675812L28.9055 0.683794H25.6658L25.2988 0.678472C25.3207 7.11193 27.3336 13.0372 31.2799 18.2893V18.2867Z" fill="white"/>
<path id="Vector_7" d="M21.7251 28.7936V45.279H17.4474L17.4419 44.6058C17.4365 40.8171 17.431 36.9006 17.4501 33.048C17.4501 32.9415 17.4419 32.7127 17.4419 32.7127C18.9481 31.5021 20.3777 30.1957 21.7251 28.7909V28.7936Z" fill="white"/>
<path id="Vector_8" d="M89.1515 34.6071H71.9724V25.4385H87.6206V20.1731H71.9724V12.0102H89.1515V6.69685H66.0078V39.9231H89.1515V34.6071Z" fill="white"/>
<path id="Vector_9" d="M100.799 15.328H94.9326V39.9231H100.799V25.4092L109.932 20.8542V14.8704L100.799 19.7154V15.328Z" fill="white"/>
<path id="Vector_10" d="M123.337 14.897C120.623 14.897 118.35 15.5222 116.578 16.7594C114.85 17.9674 113.547 19.5132 112.706 21.3597L117.318 23.6452C117.701 22.7033 118.339 21.8546 119.224 21.1176C120.174 20.3274 121.508 19.9256 123.189 19.9256C124.871 19.9256 126.248 20.3833 127.28 21.2879C128.318 22.1978 128.844 23.1849 128.844 24.2199V24.6217L121.62 25.0633C118.81 25.2203 116.606 25.9972 115.064 27.3675C113.53 28.735 112.752 30.5629 112.752 32.8032C112.752 35.0434 113.579 36.8873 115.209 38.2841C116.847 39.6863 118.933 40.3993 121.409 40.3993C124.786 40.3993 127.176 39.3776 128.516 37.3609L128.841 36.8713V39.9204H134.658V24.7467C134.658 22.2164 133.653 19.915 131.673 17.9115C129.693 15.9107 126.889 14.8943 123.334 14.8943L123.337 14.897ZM128.943 30.1186C128.943 31.6697 128.264 32.9655 126.924 33.9712C125.599 34.9663 124.043 35.4691 122.299 35.4691C121.242 35.4691 120.366 35.2057 119.697 34.6896C119.015 34.1628 118.668 33.4471 118.668 32.5637C118.668 31.6804 118.98 30.978 119.593 30.4671C120.196 29.9669 121.001 29.6769 121.992 29.6104L128.946 29.1661V30.1159L128.943 30.1186Z" fill="white"/>
<path id="Vector_11" d="M176.024 17.5683C174.159 15.8495 171.807 14.9768 169.038 14.9768C165.689 14.9768 163.046 16.1635 161.181 18.5075L161.033 18.6937L160.896 18.5022C159.229 16.1635 156.72 14.9795 153.439 14.9795C151.93 14.9795 150.572 15.2961 149.403 15.916C148.236 16.5359 147.357 17.3687 146.782 18.3904L146.451 18.9811V15.4105H140.634V40.0056H146.451V25.646C146.451 24.1055 146.932 22.8231 147.88 21.836C148.83 20.8462 150.104 20.3433 151.662 20.3433C153.22 20.3433 154.401 20.8356 155.367 21.8094C156.334 22.7805 156.824 24.0709 156.824 25.646V40.0056H162.641V25.646C162.641 24.1055 163.123 22.8231 164.07 21.836C165.021 20.8462 166.294 20.3433 167.852 20.3433C169.411 20.3433 170.588 20.8356 171.558 21.8094C172.524 22.7832 173.015 24.0736 173.015 25.646V40.0056H178.831V23.7756C178.831 21.3757 177.887 19.2871 176.024 17.5709V17.5683Z" fill="white"/>
<path id="Vector_12" d="M194.458 14.897C191.744 14.897 189.471 15.5222 187.699 16.7594C185.971 17.9674 184.667 19.5132 183.827 21.3597L188.438 23.6452C188.819 22.7033 189.46 21.8546 190.344 21.1176C191.295 20.3274 192.628 19.9256 194.31 19.9256C195.991 19.9256 197.369 20.3833 198.401 21.2879C199.439 22.1978 199.965 23.1849 199.965 24.2226V24.6243L192.741 25.066C189.931 25.223 187.726 25.9999 186.185 27.3701C184.651 28.7377 183.873 30.5656 183.873 32.8058C183.873 35.0461 184.7 36.8899 186.33 38.2868C187.967 39.6889 190.054 40.402 192.53 40.402C195.907 40.402 198.297 39.3803 199.636 37.3635L199.962 36.874V39.9231H205.779V24.7494C205.779 22.2164 204.774 19.9176 202.794 17.9142C200.814 15.9134 198.01 14.897 194.455 14.897H194.458ZM200.064 30.1186C200.064 31.6697 199.384 32.9655 198.045 33.9712C196.72 34.9663 195.164 35.4691 193.42 35.4691C192.363 35.4691 191.486 35.2057 190.816 34.6896C190.134 34.1628 189.786 33.447 189.786 32.5637C189.786 31.6804 190.098 30.978 190.711 30.4671C191.314 29.9669 192.119 29.6769 193.11 29.6104L200.064 29.1661V30.1159V30.1186Z" fill="white"/>
<path id="Vector_13" d="M221.362 14.897C218.648 14.897 216.375 15.5222 214.603 16.7594C212.875 17.9674 211.571 19.5132 210.73 21.3597L215.342 23.6452C215.726 22.7033 216.364 21.8546 217.248 21.1176C218.199 20.3274 219.532 19.9256 221.214 19.9256C222.895 19.9256 224.273 20.3833 225.305 21.2879C226.343 22.1978 226.869 23.1849 226.869 24.2226V24.6243L219.645 25.066C216.835 25.223 214.63 25.9999 213.088 27.3701C211.555 28.7377 210.777 30.5656 210.777 32.8058C210.777 35.0461 211.604 36.8899 213.234 38.2868C214.871 39.6889 216.958 40.402 219.434 40.402C222.81 40.402 225.201 39.3803 226.54 37.3635L226.866 36.874V39.9231H232.683V24.7494C232.683 22.2164 231.678 19.9176 229.698 17.9142C227.718 15.9134 224.914 14.897 221.359 14.897H221.362ZM226.967 30.1186C226.967 31.6697 226.288 32.9655 224.949 33.9712C223.624 34.9663 222.068 35.4691 220.324 35.4691C219.267 35.4691 218.39 35.2057 217.719 34.6896C217.037 34.1628 216.69 33.447 216.69 32.5637C216.69 31.6804 217.002 30.978 217.615 30.4671C218.218 29.9669 219.023 29.6769 220.014 29.6104L226.967 29.1661V30.1159V30.1186Z" fill="white"/>
<g id="Group">
<path id="Vector_14" d="M18.0417 21.0697C17.5789 21.6125 17.1352 22.1313 16.6888 22.6475C14.7308 24.9117 12.4084 26.9018 9.59046 28.735C6.99977 30.4192 0.621634 32.8564 0.555908 32.8803L0.564124 33.3034V37.0442L0.651758 37.0203C9.03179 34.663 15.7166 30.3314 21.087 23.7809L21.15 23.7037L21.087 23.6053C20.2764 22.4719 19.526 21.3171 18.8386 20.1358L18.0417 21.0697Z" fill="white"/>
<path id="Vector_15" d="M15.0211 11.6989C11.8717 17.8636 7.00256 22.3388 0.553223 24.9995L0.564177 25.4731V29.2113L0.660027 29.1794C0.881851 29.1022 1.08998 29.033 1.28716 28.9665C1.67878 28.8361 2.04574 28.7137 2.39628 28.5674C8.3828 26.085 13.1808 22.1872 16.6588 16.9829C16.7546 16.8393 16.8724 16.6477 16.9518 16.5173C16.2151 14.9209 15.5852 13.2873 15.0567 11.6217L15.0184 11.6962L15.0211 11.6989Z" fill="white"/>
<path id="Vector_16" d="M25.4277 28.8468V45.3322H29.7054L29.7109 44.659C29.7163 40.8703 29.7218 36.9538 29.7026 33.1012C29.7026 32.9947 29.7109 32.7659 29.7109 32.7659C28.2046 31.5553 26.7751 30.2489 25.4277 28.8441V28.8468Z" fill="white"/>
</g>
</g>
</svg>
