<svg width="149" height="51" viewBox="0 0 149 51" fill="none" xmlns="http://www.w3.org/2000/svg">
<g id="Group 39464">
<g id="Group 2">
<path id="Path 1" d="M51.3409 23.1674H57.138L55.3761 32.568H55.4727C57.7145 24.0691 60.8212 22.6836 63.13 22.6836C66.5572 22.6836 67.8384 25.2281 67.3261 29.475L66.0128 40.4854H60.2473L61.4325 30.4736C61.6256 28.7674 61.5928 27.3186 60.311 27.3186C58.0698 27.3186 56.1477 33.0162 55.1226 40.4854H49.3262L51.3409 23.1674Z" fill="#053732"/>
<path id="Path 2" d="M81.4098 35.1776L84.42 37.0449C82.7868 39.6528 80.0965 40.9393 76.8617 40.9393C71.609 40.9393 69.333 37.8172 69.333 33.6951C69.333 27.1276 73.6894 22.6841 79.3262 22.6841C82.5288 22.6841 85.5725 24.0695 85.5725 27.1916C85.5725 32.117 78.8803 33.0833 75.0027 33.3731V33.8258C75.0027 36.1109 75.8997 37.4304 77.6615 37.4304C79.2631 37.4304 80.5122 36.433 81.4098 35.1776ZM75.2601 31.1215C78.7188 30.7981 80.2888 28.9961 80.2888 27.1929C80.2888 26.2595 79.9028 25.7771 79.0714 25.7771C77.3417 25.7783 75.836 27.9665 75.2595 31.1215H75.2601Z" fill="#053732"/>
<path id="Path 3" d="M87.0781 23.166H92.235L92.8437 36.7196L96.8153 23.166H103.285L104.053 36.7196C105.824 32.4136 106.812 27.8229 106.969 23.166H112.541C112.06 28.5739 109.498 34.82 105.815 40.4859H100.178L99.5694 27.3191L95.6622 40.4859H88.5839L87.0781 23.166Z" fill="#053732"/>
<path id="Path 4" d="M112.611 35.2707C112.611 29.1216 117.159 22.6815 121.771 22.6815C122.454 22.6338 123.136 22.7963 123.725 23.1473C124.314 23.4983 124.783 24.0212 125.07 24.6465L125.263 23.1653H130.772L128.754 40.4852H122.957L123.437 36.4615H123.341C121.964 39.0694 120.138 40.9354 117.256 40.9354C114.309 40.9354 112.611 38.9691 112.611 35.2707ZM124.493 28.7025C124.493 26.8352 123.978 25.9982 122.956 25.9982C120.714 25.9982 118.504 30.7309 118.504 34.6265C118.504 36.4615 119.019 37.3308 120.042 37.3308C122.284 37.3308 124.493 32.5658 124.493 28.7025Z" fill="#053732"/>
<path id="Path 5" d="M148.927 23.166C148.223 29.09 144.539 36.3652 143.162 38.6833C139.799 44.3176 136.82 46.7644 131.599 46.7644L131.02 42.707C134.575 42.6424 136.208 42.0318 137.584 40.4859H134.701L132.651 23.166H138.385L139.506 37.6542C141.459 34.0807 142.901 29.0583 143.253 23.166H148.927Z" fill="#053732"/>
</g>
<path id="Path 6" d="M38.4022 15.5716L20.0213 0C19.3988 0.350428 18.8701 0.847304 18.4806 1.44811C18.091 2.04891 17.8522 2.7357 17.7846 3.44961C17.7169 4.16352 17.8226 4.8833 18.0923 5.5472C18.3621 6.21111 18.7879 6.79937 19.3334 7.26158L23.0218 10.372C23.4709 10.7507 23.84 11.216 24.1074 11.7403C24.3748 12.2645 24.5352 12.8373 24.579 13.4249C24.6228 14.0124 24.5492 14.6028 24.3626 15.1613C24.176 15.7198 23.88 16.2352 23.4922 16.677C23.2652 16.9134 23.0262 17.1377 22.7761 17.349C22.556 17.5431 22.3758 17.6912 22.3758 17.6912L21.2819 16.7455C20.0798 15.7333 18.6911 14.9691 17.1951 14.4964C15.6991 14.0237 14.1252 13.8519 12.5631 13.9908C11.0011 14.1297 9.48155 14.5765 8.09133 15.3057C6.70111 16.035 5.46745 17.0324 4.46078 18.2409L2.25621 16.3814C1.63378 16.7318 1.10512 17.2287 0.715622 17.8295C0.326121 18.4303 0.0873979 19.117 0.0198321 19.8309C-0.0477338 20.5448 0.0579369 21.2644 0.327746 21.9283C0.597554 22.5921 1.02345 23.1803 1.56898 23.6424L1.77682 23.8183C1.41124 25.9067 1.60176 28.0553 2.3291 30.0458C3.05645 32.0363 4.29475 33.798 5.91826 35.1521L20.8642 47.7582V47.7504L24.0649 50.4502C24.6875 50.0999 25.2163 49.6031 25.606 49.0023C25.9956 48.4016 26.2345 47.7148 26.3021 47.0009C26.3698 46.287 26.2641 45.5672 25.9943 44.9033C25.7245 44.2394 25.2984 43.6513 24.7528 43.1892L21.4029 40.3627L23.3191 38.0666L29.9907 43.6937L39.7979 31.8929C41.7551 29.5378 42.7067 26.5006 42.4453 23.4432C42.1838 20.3859 40.7305 17.5564 38.4022 15.5716ZM35.4023 26.5639C35.1997 26.8068 34.93 26.9838 34.6273 27.0726C34.3247 27.1614 34.0026 27.158 33.7019 27.0627C33.4011 26.9675 33.1353 26.7847 32.9379 26.5375C32.7405 26.2904 32.6205 25.99 32.5931 25.6742C32.5656 25.3585 32.6319 25.0417 32.7836 24.7638C32.9353 24.486 33.1656 24.2596 33.4453 24.1134C33.7251 23.9671 34.0416 23.9075 34.355 23.9422C34.6684 23.9768 34.9646 24.1041 35.206 24.3079C35.5299 24.5807 35.7328 24.9715 35.7701 25.3946C35.8074 25.8176 35.676 26.2382 35.4049 26.5639H35.4023Z" fill="#053732"/>
<path id="Path 7" d="M52.6935 12.7207H54.6883L54.012 16.291H54.0615C54.6285 14.1048 55.389 12.5396 56.6355 12.5396C58.1798 12.5396 57.8928 14.337 57.6386 16.291H57.6753C58.3394 13.7517 59.2093 12.5396 60.3695 12.5396C61.7955 12.5396 62.0129 13.8027 61.8186 15.3809L61.3598 19.219H59.3541L59.8013 15.5155C59.8856 14.8111 59.8979 14.1572 59.4635 14.1572C58.8104 14.1572 58.1122 15.8091 57.7261 18.2967L57.5974 19.2197H55.712L56.0981 16.0737C56.2673 14.6287 56.1947 14.1553 55.8208 14.1553C55.0828 14.1553 54.3588 16.1351 53.9477 19.2197H51.9419L52.6935 12.7207Z" fill="#053732"/>
<path id="Path 8" d="M62.5591 17.2751C62.5591 14.9913 64.2501 12.5386 65.9785 12.5386C66.2349 12.518 66.4914 12.5782 66.7122 12.7108C66.9331 12.8434 67.1073 13.0418 67.2108 13.2786L67.2835 12.7217H69.2037L68.4431 19.2181H66.4483L66.6284 17.6658H66.5931C66.0847 18.6489 65.3704 19.3908 64.2855 19.3908C63.1903 19.3882 62.5591 18.6463 62.5591 17.2751ZM67.0043 14.7604C67.0043 14.0327 66.7874 13.7048 66.3884 13.7048C65.4702 13.7048 64.6247 15.587 64.6247 17.0565C64.6247 17.7842 64.8312 18.1128 65.2404 18.1128C66.1625 18.1128 67.0068 16.2299 67.0068 14.7604H67.0043Z" fill="#053732"/>
<path id="Path 9" d="M69.7261 17.258C69.7261 14.9638 71.4049 12.5364 73.1809 12.5364C73.4354 12.5194 73.6888 12.5829 73.9056 12.7179C74.1224 12.8529 74.2918 13.0527 74.39 13.2892L74.6924 10.7144H76.6126L75.6222 19.2158H73.6172L73.7974 17.6739H73.7619C73.2658 18.5839 72.5773 19.386 71.4654 19.386C70.3535 19.386 69.7261 18.6551 69.7261 17.258ZM74.1713 14.7562C74.1713 14.0285 73.9544 13.7006 73.5554 13.7006C72.6372 13.7006 71.7917 15.5828 71.7917 17.0523C71.7917 17.7799 71.9982 18.1085 72.4081 18.1085C73.3257 18.1085 74.1713 16.2257 74.1713 14.7562Z" fill="#053732"/>
<path id="Path 10" d="M81.4695 17.2987L82.5339 17.9662C82.2342 18.4234 81.8219 18.7948 81.3369 19.0442C80.852 19.2935 80.3111 19.4124 79.7669 19.3891C77.8461 19.3891 77 18.2482 77 16.6687C77 14.2523 78.5958 12.5396 80.6858 12.5396C81.844 12.5396 82.9438 13.0492 82.9438 14.2038C82.9438 15.9999 80.5043 16.4132 78.9825 16.5109V16.7295C78.9825 17.6519 79.3441 18.1628 80.0326 18.1628C80.3237 18.1461 80.6066 18.0587 80.8568 17.9082C81.107 17.7578 81.3172 17.5486 81.4695 17.2987ZM79.0771 15.6947C80.4561 15.5737 81.0828 14.8939 81.0828 14.1773C81.0828 13.8241 80.938 13.6307 80.6009 13.6307C79.9123 13.6307 79.3068 14.5058 79.0771 15.6947Z" fill="#053732"/>
<path id="Path 11" d="M87.4305 19.2165H85.4248L86.186 12.7201H88.193L87.4305 19.2165ZM86.2079 10.8126C86.2082 10.6535 86.2409 10.4961 86.3039 10.35C86.3669 10.204 86.4589 10.0725 86.5743 9.96347C86.6897 9.85446 86.826 9.77028 86.9749 9.7161C87.1238 9.66193 87.2821 9.63889 87.4401 9.6484C87.5811 9.63872 87.7226 9.65834 87.8558 9.706C87.9889 9.75365 88.1108 9.82833 88.2139 9.92541C88.3171 10.0225 88.3992 10.1399 88.4553 10.2703C88.5114 10.4007 88.5402 10.5413 88.5398 10.6833C88.5386 10.8422 88.5053 10.9992 88.442 11.1447C88.3786 11.2903 88.2866 11.4215 88.1714 11.5303C88.0563 11.6391 87.9203 11.7234 87.7719 11.7779C87.6234 11.8324 87.4655 11.8561 87.3076 11.8475C87.1669 11.8568 87.0256 11.837 86.8928 11.7891C86.76 11.7413 86.6384 11.6666 86.5355 11.5695C86.4326 11.4725 86.3507 11.3552 86.2948 11.225C86.2389 11.0948 86.2102 10.9544 86.2105 10.8126H86.2079Z" fill="#053732"/>
<path id="Path 12" d="M89.5319 12.7207H91.5266L90.8503 16.291H90.8876C91.7242 13.024 92.9281 12.5396 93.7833 12.5396C95.076 12.5396 95.5368 13.4994 95.3425 15.1391L94.8585 19.219H92.8535L93.3 15.4534C93.385 14.738 93.3644 14.1546 92.8412 14.1546C91.9951 14.1546 91.1747 16.1345 90.7757 19.219H88.77L89.5319 12.7207Z" fill="#053732"/>
</g>
</svg>
