<svg width="69" height="69" viewBox="0 0 69 69" fill="none" xmlns="http://www.w3.org/2000/svg">
<g id="Group 51153">
<circle id="Ellipse 144" cx="34.5" cy="34.5" r="34.5" transform="rotate(90 34.5 34.5)" fill="#FFD237"/>
<g id="Group">
<path id="Vector" d="M25.2164 57.9594L25.3277 57.9594C25.3301 57.9529 25.5134 57.3384 25.7327 56.6921C26.6973 53.8424 27.9679 51.1973 29.5085 48.8296C32.2559 44.6071 35.7371 41.0849 39.8558 38.362C42.8682 36.3706 46.1752 34.866 49.6843 33.8908C52.6853 33.0571 55.4835 32.6365 58.239 32.6079L58.3912 32.6063C58.5753 32.6038 58.7733 32.5989 58.9868 32.5989L58.9868 28.4238C50.6686 28.4533 43.0441 30.9078 36.345 35.7104C28.7091 41.1839 23.5326 48.6561 20.9603 57.9193L20.9497 57.9594L25.2164 57.9594Z" fill="#053732"/>
<path id="Vector_2" d="M40.512 42.3369C35.1359 46.2632 31.2873 51.5559 29.1192 57.9604L33.579 57.9604C33.5945 57.9285 35.0844 54.7999 35.8412 53.5097C37.6174 50.4808 40.0571 47.8513 43.3012 45.4704C45.1036 44.1483 46.9952 43.1182 48.9277 42.408C49.8391 42.0431 50.8094 41.787 51.747 41.5383C52.0498 41.4581 52.3508 41.3788 52.6519 41.2953C54.6319 40.7455 56.7067 40.4575 58.9951 40.4134L58.9869 39.9167L58.9869 36.613L58.9918 36.2383C52.2396 36.2612 46.0224 38.3123 40.512 42.3369Z" fill="#053732"/>
<path id="Vector_3" d="M29.4873 32.5952L12.1897 32.5952L12.1897 28.2353L12.895 28.2295C16.8696 28.2246 20.9784 28.2189 25.0218 28.2369C25.1322 28.2369 25.3728 28.2279 25.3728 28.2279L25.376 28.2279C26.6426 29.7636 28.0138 31.2199 29.4865 32.5952L29.4873 32.5952Z" fill="#053732"/>
<g id="Group_2">
<path id="Vector_4" d="M37.59 28.8417C37.0206 28.3705 36.4757 27.918 35.934 27.4623C33.5589 25.4652 31.4693 23.0974 29.5467 20.2257C27.7786 17.5855 25.2227 11.0819 25.1973 11.0156L24.7522 11.023L20.8275 11.023L20.8521 11.1122C23.3254 19.6554 27.8694 26.4699 34.7436 31.9442L34.8254 32.0096L34.9302 31.9458C36.1198 31.1203 37.3323 30.3545 38.5693 29.6533L37.5892 28.8401L37.59 28.8417Z" fill="#053732"/>
<path id="Vector_5" d="M47.4254 25.7623C40.9578 22.5511 36.2624 17.5881 33.4692 11.0117L32.9717 11.0232L29.0478 11.0232L29.0806 11.1214C29.1624 11.348 29.2352 11.5599 29.3039 11.762C29.4406 12.1596 29.5698 12.536 29.7228 12.8935C32.3287 18.9953 36.4186 23.8871 41.8782 27.433C42.0288 27.5304 42.2309 27.6515 42.3667 27.7325C44.0414 26.9814 45.7547 26.3383 47.5039 25.8016L47.4254 25.7623Z" fill="#053732"/>
<path id="Vector_6" d="M29.4312 36.3691L12.1336 36.3691L12.1336 40.7291L12.8388 40.7348C16.8135 40.7398 20.9223 40.7455 24.9656 40.7275C25.0761 40.7275 25.3166 40.7365 25.3166 40.7365L25.3199 40.7365C26.5864 39.2008 27.9576 37.7445 29.4303 36.3691L29.4312 36.3691Z" fill="#053732"/>
</g>
</g>
</g>
</svg>
