<svg width="54" height="54" viewBox="0 0 54 54" fill="none" xmlns="http://www.w3.org/2000/svg">
<g id="Group 51154">
<ellipse id="Ellipse 144" cx="27" cy="27" rx="27" ry="27" transform="rotate(90 27 27)" fill="#053732"/>
<g id="Group">
<path id="Vector" d="M20.3748 41.9991L20.446 41.9991C20.4476 41.9949 20.5649 41.6023 20.7053 41.1893C21.3228 39.3684 22.1363 37.6782 23.1225 36.1652C24.8814 33.467 27.11 31.2163 29.7467 29.4764C31.6753 28.2039 33.7923 27.2425 36.0388 26.6193C37.96 26.0866 39.7513 25.8179 41.5154 25.7996L41.6128 25.7985C41.7307 25.797 41.8574 25.7938 41.9941 25.7938L41.9941 23.126C36.6689 23.1448 31.7879 24.7132 27.4992 27.782C22.6108 31.2796 19.2969 36.0543 17.6501 41.9735L17.6433 41.9991L20.3748 41.9991Z" fill="#FFD237"/>
<path id="Vector_2" d="M30.1674 32.0161C26.7257 34.525 24.2618 37.907 22.8738 41.9995L25.7289 41.9995C25.7389 41.9791 26.6927 39.9799 27.1772 39.1555C28.3143 37.2201 29.8762 35.5398 31.9529 34.0184C33.1068 33.1736 34.3178 32.5154 35.5549 32.0616C36.1384 31.8284 36.7596 31.6648 37.3599 31.5059C37.5537 31.4546 37.7464 31.4039 37.9392 31.3506C39.2067 30.9993 40.535 30.8152 42 30.787L41.9948 30.4697L41.9948 28.3586L41.9979 28.1191C37.6752 28.1338 33.695 29.4444 30.1674 32.0161Z" fill="#FFD237"/>
<path id="Vector_3" d="M23.1094 25.7918L12.0357 25.7918L12.0357 23.0058L12.4872 23.0022C15.0317 22.999 17.6621 22.9954 20.2506 23.0069C20.3213 23.0069 20.4753 23.0011 20.4753 23.0011L20.4774 23.0011C21.2882 23.9824 22.1661 24.913 23.1089 25.7918L23.1094 25.7918Z" fill="#FFD237"/>
<g id="Group_2">
<path id="Vector_4" d="M28.2988 23.3937C27.9343 23.0926 27.5854 22.8035 27.2387 22.5123C25.7182 21.2361 24.3805 19.7231 23.1496 17.8881C22.0177 16.201 20.3814 12.0453 20.3652 12.0029L20.0803 12.0076L17.5677 12.0076L17.5834 12.0646C19.1668 17.5237 22.0759 21.8781 26.4766 25.3762L26.529 25.418L26.596 25.3772C27.3576 24.8497 28.1338 24.3604 28.9258 23.9124L28.2983 23.3927L28.2988 23.3937Z" fill="#FFD237"/>
<path id="Vector_5" d="M34.5942 21.4256C30.4538 19.3736 27.4479 16.2023 25.6597 12L25.3412 12.0073L22.8292 12.0073L22.8502 12.0701C22.9025 12.2149 22.9492 12.3503 22.9932 12.4794C23.0806 12.7335 23.1634 12.974 23.2613 13.2024C24.9296 17.1015 27.5479 20.2273 31.0431 22.4932C31.1394 22.5554 31.2688 22.6327 31.3557 22.6845C32.4279 22.2046 33.5247 21.7936 34.6445 21.4507L34.5942 21.4256Z" fill="#FFD237"/>
<path id="Vector_6" d="M23.0742 28.2031L12.0006 28.2031L12.0006 30.9891L12.4521 30.9928C14.9966 30.9959 17.627 30.9996 20.2155 30.9881C20.2862 30.9881 20.4402 30.9938 20.4402 30.9938L20.4423 30.9938C21.2531 30.0125 22.1309 29.082 23.0737 28.2031L23.0742 28.2031Z" fill="#FFD237"/>
</g>
</g>
</g>
</svg>
