<svg width="112" height="120" viewBox="0 0 112 120" fill="none" xmlns="http://www.w3.org/2000/svg">
<g id="Map">
<g id="Group 51252">
<path id="Vector" d="M67 25L82 40L72 45L92 65L77 70L97 90H52" stroke="white" stroke-width="2" stroke-linecap="round" stroke-linejoin="round"/>
<path id="Vector_2" d="M62 105V90" stroke="white" stroke-width="2" stroke-linecap="round" stroke-linejoin="round"/>
<path id="Vector_3" d="M32 65L22 55" stroke="white" stroke-width="2" stroke-linecap="round" stroke-linejoin="round"/>
<path id="Vector_4" d="M32 60L42 50" stroke="white" stroke-width="2" stroke-linecap="round" stroke-linejoin="round"/>
<path id="Vector_5" d="M32 105V40" stroke="white" stroke-width="2" stroke-linecap="round" stroke-linejoin="round"/>
<path id="Vector_6" d="M21.1161 80.0022C18.9284 79.8741 16.7954 79.2682 14.8671 78.2272C12.9388 77.1862 11.262 75.7353 9.9546 73.9766C8.64725 72.2179 7.74113 70.1941 7.29996 68.0476C6.8588 65.901 6.89332 63.6839 7.40108 61.5522C5.58844 60.0427 4.15736 58.1269 3.22405 55.9606C2.29074 53.7942 1.88151 51.4382 2.02959 49.084C2.17767 46.7298 2.87889 44.4437 4.07631 42.4113C5.27373 40.379 6.93358 38.6577 8.92108 37.3872C7.17794 34.2905 6.59084 30.6754 7.26439 27.1862C7.93794 23.697 9.82839 20.5603 12.5989 18.3348C15.3694 16.1094 18.8401 14.9399 22.3924 15.0346C25.9448 15.1294 29.3481 16.4822 31.9961 18.8522C34.6446 16.486 38.0469 15.1363 41.5972 15.0434C45.1476 14.9505 48.6158 16.1204 51.3844 18.3448C54.1531 20.5693 56.0427 23.7039 56.7169 27.1909C57.3911 30.6779 56.8061 34.291 55.0661 37.3872C57.0539 38.6572 58.7142 40.3782 59.9121 42.4103C61.1099 44.4425 61.8116 46.7285 61.9602 49.0827C62.1088 51.437 61.7 53.793 60.7671 55.9597C59.8342 58.1263 58.4035 60.0423 56.5911 61.5522C57.1159 63.7562 57.1347 66.0504 56.6461 68.2627C56.1574 70.4749 55.1739 72.5478 53.7695 74.3256C52.365 76.1034 50.5761 77.5399 48.5371 78.5274C46.498 79.5149 44.2617 80.0276 41.9961 80.0272H21.9961L21.1161 80.0022Z" stroke="white" stroke-width="2" stroke-linecap="round" stroke-linejoin="round"/>
</g>
</g>
</svg>
