<svg width="85" height="120" viewBox="0 0 85 120" fill="none" xmlns="http://www.w3.org/2000/svg">
<g id="Nature">
<path id="Vector" d="M47.5 74.5C41.5326 74.5 35.8097 76.8705 31.5901 81.0901C27.3705 85.3097 25 91.0326 25 97C25 84.575 16.05 74.5 5 74.5M47.5 54.5C41.5326 54.5 35.8097 56.8705 31.5901 61.0901C27.3705 65.3097 25 71.0326 25 77C25 64.575 16.05 54.5 5 54.5M47.5 34.5C41.5326 34.5 35.8097 36.8705 31.5901 41.0901C27.3705 45.3097 25 51.0326 25 57C25 44.575 16.05 34.5 5 34.5M25 19.5V49.5" stroke="white" stroke-width="2" stroke-linecap="round" stroke-linejoin="round"/>
</g>
</svg>
