<svg width="124" height="124" viewBox="0 0 124 124" fill="none" xmlns="http://www.w3.org/2000/svg">
<g id="Nature" clip-path="url(#clip0_239_3000)">
<g id="Group 51254">
<path id="Vector" d="M62 51.6667C62 43.445 58.7339 35.5601 52.9203 29.7464C47.1067 23.9328 39.2217 20.6667 31 20.6667H15.5V31.0001C15.5 39.2218 18.7661 47.1068 24.5797 52.9204C30.3933 58.734 38.2783 62.0001 46.5 62.0001H62" stroke="white" stroke-width="2" stroke-linecap="round" stroke-linejoin="round"/>
<path id="Vector_2" d="M62 72.3333C62 64.1115 65.2661 56.2266 71.0797 50.4129C76.8933 44.5993 84.7783 41.3333 93 41.3333H108.5V46.4999C108.5 54.7216 105.234 62.6066 99.4203 68.4202C93.6067 74.2339 85.7217 77.4999 77.5 77.4999H62" stroke="white" stroke-width="2" stroke-linecap="round" stroke-linejoin="round"/>
<path id="Vector_3" d="M62 103.333V51.6667" stroke="white" stroke-width="2" stroke-linecap="round" stroke-linejoin="round"/>
</g>
</g>
<defs>
<clipPath id="clip0_239_3000">
<rect width="124" height="124" fill="white"/>
</clipPath>
</defs>
</svg>
